<svg width="25" height="25" viewBox="0 0 25 25" fill="none" xmlns="http://www.w3.org/2000/svg">
<g id="check-circle">
<path id="check-circle_2" d="M12.6968 2.22754C7.17678 2.22754 2.69678 6.70754 2.69678 12.2275C2.69678 17.7475 7.17678 22.2275 12.6968 22.2275C18.2168 22.2275 22.6968 17.7475 22.6968 12.2275C22.6968 6.70754 18.2168 2.22754 12.6968 2.22754ZM16.7268 10.4276L12.0568 15.0875C11.9168 15.2375 11.7268 15.3076 11.5268 15.3076C11.3368 15.3076 11.1468 15.2375 10.9968 15.0875L8.66678 12.7576C8.37678 12.4676 8.37678 11.9875 8.66678 11.6975C8.95678 11.4075 9.43678 11.4075 9.72678 11.6975L11.5268 13.4976L15.6668 9.36755C15.9568 9.06755 16.4368 9.06755 16.7268 9.36755C17.0168 9.65755 17.0168 10.1276 16.7268 10.4276Z" fill="#64FFDA"/>
</g>
</svg>
