<svg width="274" height="60" viewBox="0 0 274 60" fill="none" xmlns="http://www.w3.org/2000/svg">
<path d="M2.25 47V12.0909H26.7955V19.7273H11.7273V25.7273H25.2955V33.3636H11.7273V47H2.25ZM29.8551 47V20.8182H38.9915V25.7955H39.2642C39.7415 23.9545 40.4972 22.608 41.5312 21.7557C42.5767 20.9034 43.7983 20.4773 45.196 20.4773C45.6051 20.4773 46.0085 20.5114 46.4062 20.5795C46.8153 20.6364 47.2074 20.7216 47.5824 20.8352V28.8636C47.1165 28.7045 46.5426 28.5852 45.8608 28.5057C45.179 28.4261 44.5938 28.3864 44.1051 28.3864C43.1847 28.3864 42.3551 28.5966 41.6165 29.017C40.8892 29.4261 40.3153 30.0057 39.8949 30.7557C39.4744 31.4943 39.2642 32.3636 39.2642 33.3636V47H29.8551ZM61.7131 47.4773C58.9176 47.4773 56.5085 46.9432 54.4858 45.875C52.4744 44.7955 50.9233 43.25 49.8324 41.2386C48.7528 39.2159 48.2131 36.7955 48.2131 33.9773C48.2131 31.2727 48.7585 28.9091 49.8494 26.8864C50.9403 24.8636 52.4801 23.2898 54.4688 22.1648C56.4574 21.0398 58.804 20.4773 61.5085 20.4773C63.4858 20.4773 65.2756 20.7841 66.8778 21.3977C68.4801 22.0114 69.8494 22.9034 70.9858 24.0739C72.1222 25.233 72.9972 26.642 73.6108 28.3011C74.2244 29.9602 74.5312 31.8295 74.5312 33.9091V36.0909H51.1449V30.9091H65.8722C65.8608 30.1591 65.6676 29.5 65.2926 28.9318C64.929 28.3523 64.4347 27.9034 63.8097 27.5852C63.196 27.2557 62.4972 27.0909 61.7131 27.0909C60.9517 27.0909 60.2528 27.2557 59.6165 27.5852C58.9801 27.9034 58.4688 28.3466 58.0824 28.9148C57.7074 29.483 57.5085 30.1477 57.4858 30.9091V36.5C57.4858 37.3409 57.6619 38.0909 58.0142 38.75C58.3665 39.4091 58.8722 39.9261 59.5312 40.3011C60.1903 40.6761 60.9858 40.8636 61.9176 40.8636C62.5653 40.8636 63.1563 40.7727 63.6903 40.5909C64.2358 40.4091 64.7017 40.1477 65.0881 39.8068C65.4744 39.4545 65.7585 39.0341 65.9403 38.5455H74.5312C74.2358 40.3636 73.5369 41.9432 72.4347 43.2841C71.3324 44.6136 69.8722 45.6477 68.054 46.3864C66.2472 47.1136 64.1335 47.4773 61.7131 47.4773ZM87.848 47.3409C85.9844 47.3409 84.2685 46.8523 82.7003 45.875C81.1435 44.8977 79.8935 43.4148 78.9503 41.4261C78.0185 39.4375 77.5526 36.9318 77.5526 33.9091C77.5526 30.75 78.0412 28.1818 79.0185 26.2045C80.0071 24.2273 81.2798 22.7784 82.8366 21.858C84.4048 20.9375 86.0526 20.4773 87.7798 20.4773C89.0753 20.4773 90.2116 20.7045 91.1889 21.1591C92.1662 21.6023 92.9844 22.1989 93.6435 22.9489C94.3026 23.6875 94.8026 24.5 95.1435 25.3864H95.2798V12.0909H104.689V47H95.348V42.7045H95.1435C94.7798 43.5909 94.2571 44.3864 93.5753 45.0909C92.9048 45.7841 92.0866 46.3352 91.1207 46.7443C90.1662 47.142 89.0753 47.3409 87.848 47.3409ZM91.3253 40.1136C92.1889 40.1136 92.9276 39.8636 93.5412 39.3636C94.1662 38.8523 94.6435 38.1364 94.973 37.2159C95.3139 36.2841 95.4844 35.1818 95.4844 33.9091C95.4844 32.6136 95.3139 31.5057 94.973 30.5852C94.6435 29.6534 94.1662 28.9432 93.5412 28.4545C92.9276 27.9545 92.1889 27.7045 91.3253 27.7045C90.4616 27.7045 89.723 27.9545 89.1094 28.4545C88.5071 28.9432 88.0412 29.6534 87.7116 30.5852C87.3935 31.5057 87.2344 32.6136 87.2344 33.9091C87.2344 35.2045 87.3935 36.3182 87.7116 37.25C88.0412 38.1705 88.5071 38.8807 89.1094 39.3807C89.723 39.8693 90.4616 40.1136 91.3253 40.1136ZM121.922 47.4773C119.081 47.4773 116.649 46.9148 114.626 45.7898C112.604 44.6534 111.053 43.0739 109.973 41.0511C108.893 39.017 108.354 36.6591 108.354 33.9773C108.354 31.2955 108.893 28.9432 109.973 26.9205C111.053 24.8864 112.604 23.3068 114.626 22.1818C116.649 21.0455 119.081 20.4773 121.922 20.4773C124.49 20.4773 126.712 20.9432 128.587 21.875C130.473 22.7955 131.933 24.1023 132.967 25.7955C134.001 27.4773 134.524 29.4545 134.536 31.7273H125.808C125.683 30.3523 125.286 29.3068 124.615 28.5909C123.956 27.8636 123.104 27.5 122.058 27.5C121.24 27.5 120.524 27.7386 119.911 28.2159C119.297 28.6818 118.82 29.392 118.479 30.3466C118.138 31.2898 117.967 32.4773 117.967 33.9091C117.967 35.3409 118.138 36.5341 118.479 37.4886C118.82 38.4318 119.297 39.142 119.911 39.6193C120.524 40.0852 121.24 40.3182 122.058 40.3182C122.751 40.3182 123.365 40.1591 123.899 39.8409C124.433 39.5114 124.865 39.0341 125.195 38.4091C125.536 37.7727 125.74 37 125.808 36.0909H134.536C134.501 38.3977 133.973 40.4091 132.95 42.125C131.928 43.8295 130.479 45.1477 128.604 46.0795C126.74 47.0114 124.513 47.4773 121.922 47.4773ZM147.827 32.2727V47H138.418V12.0909H147.486V25.7955H147.759C148.349 24.125 149.332 22.8239 150.707 21.892C152.082 20.9489 153.736 20.4773 155.668 20.4773C157.52 20.4773 159.128 20.8977 160.491 21.7386C161.866 22.5795 162.929 23.7386 163.679 25.2159C164.44 26.6932 164.815 28.3864 164.804 30.2955V47H155.395V32.2727C155.406 30.9773 155.082 29.9602 154.423 29.2216C153.776 28.483 152.849 28.1136 151.645 28.1136C150.884 28.1136 150.213 28.2841 149.634 28.625C149.065 28.9545 148.622 29.4318 148.304 30.0568C147.997 30.6705 147.838 31.4091 147.827 32.2727ZM181.994 47.4773C179.199 47.4773 176.79 46.9432 174.767 45.875C172.756 44.7955 171.205 43.25 170.114 41.2386C169.034 39.2159 168.494 36.7955 168.494 33.9773C168.494 31.2727 169.04 28.9091 170.131 26.8864C171.222 24.8636 172.761 23.2898 174.75 22.1648C176.739 21.0398 179.085 20.4773 181.79 20.4773C183.767 20.4773 185.557 20.7841 187.159 21.3977C188.761 22.0114 190.131 22.9034 191.267 24.0739C192.403 25.233 193.278 26.642 193.892 28.3011C194.506 29.9602 194.812 31.8295 194.812 33.9091V36.0909H171.426V30.9091H186.153C186.142 30.1591 185.949 29.5 185.574 28.9318C185.21 28.3523 184.716 27.9034 184.091 27.5852C183.477 27.2557 182.778 27.0909 181.994 27.0909C181.233 27.0909 180.534 27.2557 179.898 27.5852C179.261 27.9034 178.75 28.3466 178.364 28.9148C177.989 29.483 177.79 30.1477 177.767 30.9091V36.5C177.767 37.3409 177.943 38.0909 178.295 38.75C178.648 39.4091 179.153 39.9261 179.812 40.3011C180.472 40.6761 181.267 40.8636 182.199 40.8636C182.847 40.8636 183.438 40.7727 183.972 40.5909C184.517 40.4091 184.983 40.1477 185.369 39.8068C185.756 39.4545 186.04 39.0341 186.222 38.5455H194.812C194.517 40.3636 193.818 41.9432 192.716 43.2841C191.614 44.6136 190.153 45.6477 188.335 46.3864C186.528 47.1136 184.415 47.4773 181.994 47.4773ZM222.584 29.3409H213.925C213.879 28.8068 213.692 28.3466 213.362 27.9602C213.033 27.5739 212.607 27.2784 212.084 27.0739C211.572 26.858 211.004 26.75 210.379 26.75C209.572 26.75 208.879 26.8977 208.3 27.1932C207.72 27.4886 207.436 27.9091 207.447 28.4545C207.436 28.8409 207.601 29.1989 207.942 29.5284C208.294 29.858 208.97 30.1136 209.97 30.2955L215.288 31.25C217.97 31.7386 219.964 32.5625 221.271 33.7216C222.589 34.8693 223.254 36.4091 223.266 38.3409C223.254 40.2045 222.697 41.8239 221.595 43.1989C220.504 44.5625 219.01 45.6193 217.112 46.3693C215.226 47.108 213.072 47.4773 210.652 47.4773C206.652 47.4773 203.521 46.6591 201.26 45.0227C199.01 43.3864 197.754 41.2273 197.493 38.5455H206.834C206.959 39.375 207.368 40.017 208.061 40.4716C208.766 40.9148 209.652 41.1364 210.72 41.1364C211.584 41.1364 212.294 40.9886 212.851 40.6932C213.419 40.3977 213.709 39.9773 213.72 39.4318C213.709 38.9318 213.459 38.5341 212.97 38.2386C212.493 37.9432 211.743 37.7045 210.72 37.5227L206.084 36.7045C203.413 36.2386 201.413 35.3523 200.084 34.0455C198.754 32.7386 198.095 31.0568 198.107 29C198.095 27.1818 198.572 25.642 199.538 24.3807C200.516 23.108 201.908 22.142 203.714 21.483C205.533 20.8125 207.686 20.4773 210.175 20.4773C213.959 20.4773 216.942 21.2614 219.124 22.8295C221.317 24.3977 222.47 26.5682 222.584 29.3409ZM250.803 29.3409H242.143C242.098 28.8068 241.911 28.3466 241.581 27.9602C241.251 27.5739 240.825 27.2784 240.303 27.0739C239.791 26.858 239.223 26.75 238.598 26.75C237.791 26.75 237.098 26.8977 236.518 27.1932C235.939 27.4886 235.655 27.9091 235.666 28.4545C235.655 28.8409 235.82 29.1989 236.161 29.5284C236.513 29.858 237.189 30.1136 238.189 30.2955L243.507 31.25C246.189 31.7386 248.183 32.5625 249.49 33.7216C250.808 34.8693 251.473 36.4091 251.484 38.3409C251.473 40.2045 250.916 41.8239 249.814 43.1989C248.723 44.5625 247.229 45.6193 245.331 46.3693C243.445 47.108 241.291 47.4773 238.871 47.4773C234.871 47.4773 231.74 46.6591 229.479 45.0227C227.229 43.3864 225.973 41.2273 225.712 38.5455H235.053C235.178 39.375 235.587 40.017 236.28 40.4716C236.984 40.9148 237.871 41.1364 238.939 41.1364C239.803 41.1364 240.513 40.9886 241.07 40.6932C241.638 40.3977 241.928 39.9773 241.939 39.4318C241.928 38.9318 241.678 38.5341 241.189 38.2386C240.712 37.9432 239.962 37.7045 238.939 37.5227L234.303 36.7045C231.632 36.2386 229.632 35.3523 228.303 34.0455C226.973 32.7386 226.314 31.0568 226.325 29C226.314 27.1818 226.791 25.642 227.757 24.3807C228.734 23.108 230.126 22.142 231.933 21.483C233.751 20.8125 235.905 20.4773 238.393 20.4773C242.178 20.4773 245.161 21.2614 247.342 22.8295C249.536 24.3977 250.689 26.5682 250.803 29.3409Z" fill="#CCD6F6"/>
<circle cx="268" cy="41" r="6" fill="#64FFDA"/>
</svg>
